<svg width="16" height="17" viewBox="0 0 16 17" fill="none" xmlns="http://www.w3.org/2000/svg">
<path fillRule="evenodd" clipRule="evenodd" d="M9.00312 3.91667C9.00312 3.50246 8.66733 3.16667 8.25312 3.16667C7.83891 3.16667 7.50312 3.50246 7.50312 3.91667V7.49748H3.41666C3.00244 7.49748 2.66666 7.83327 2.66666 8.24748C2.66666 8.6617 3.00244 8.99748 3.41666 8.99748H7.50312L7.50312 13.0833C7.50312 13.4976 7.83891 13.8333 8.25312 13.8333C8.66733 13.8333 9.00312 13.4976 9.00312 13.0833V8.99748H12.5833C12.9975 8.99748 13.3333 8.6617 13.3333 8.24748C13.3333 7.83327 12.9975 7.49748 12.5833 7.49748H9.00312V3.91667Z" fill="#5D626A"/>
</svg>
