<svg class="icon" style="width: 1em;height: 1em;vertical-align: middle;fill: currentColor;overflow: hidden;" viewBox="0 0 1024 1024" version="1.1" xmlns="http://www.w3.org/2000/svg" p-id="6323"><path d="M511.829333 1023.886222H99.726222a35.384889 35.384889 0 0 1-25.941333-11.264 36.807111 36.807111 0 0 1-9.728-26.908444L103.082667 240.526222A36.010667 36.010667 0 0 1 138.808889 206.165333h735.004444c19.000889 0 34.702222 15.132444 35.726223 34.360889l16.042666 306.858667-71.395555 3.811555-14.222223-272.497777H172.657778L137.443556 951.409778h374.328888v72.476444z" fill="#111111" p-id="6324"></path><path d="M725.447111 401.066667H653.937778V230.798222c0-87.324444-67.015111-158.321778-149.390222-158.321778-82.318222 0-149.333333 70.997333-149.333334 158.321778v168.391111H283.704889v-168.391111C283.704889 103.537778 382.748444 0 504.547556 0s220.899556 103.537778 220.899555 230.855111v170.154667z" fill="#111111" p-id="6325"></path><path d="M578.56 866.872889h381.44v-72.476445H578.56z" fill="#111111" p-id="6326"></path><path d="M733.582222 1024h71.452445v-386.730667H733.582222z" fill="#111111" p-id="6327"></path></svg>